<svg xmlns="http://www.w3.org/2000/svg" viewBox="0 0 1600 1800" width="1600" height="1800">
<!-- MOCKUP: H1 on natural-canvas tote. Vector studio render for gallery/preview use.
     Not a substitute for Printify's generated product photography. -->
<defs>
  <pattern id="h1weave" width="12" height="12" patternUnits="userSpaceOnUse">
    <rect width="12" height="12" fill="#E6DBC6"/>
    <path d="M0 6 H12 M6 0 V12" stroke="#DCCFB6" stroke-width="3"/>
  </pattern>
  <radialGradient id="h1bg" cx="50%" cy="38%" r="78%">
    <stop offset="0%" stop-color="#FBFAF8"/><stop offset="100%" stop-color="#EAE6E0"/>
  </radialGradient>
</defs>
<rect width="1600" height="1800" fill="url(#h1bg)"/>
<ellipse cx="800" cy="1690" rx="470" ry="46" fill="#000" opacity="0.10"/>
<path d="M566 470 C566 300 640 214 800 214 C960 214 1034 300 1034 470"
      fill="none" stroke="#D3C5AA" stroke-width="42" stroke-linecap="round"/>
<path d="M566 470 C566 300 640 214 800 214 C960 214 1034 300 1034 470"
      fill="none" stroke="#C9B99B" stroke-width="14" stroke-linecap="round" opacity="0.45"/>
<path d="M330 470 L1270 470 L1252 1650 Q800 1690 348 1650 Z" fill="url(#h1weave)"/>
<path d="M330 470 L1270 470 L1252 1650 Q800 1690 348 1650 Z" fill="#000" opacity="0.05"/>
<path d="M330 470 L470 470 L462 1656 Q392 1652 348 1650 Z" fill="#000" opacity="0.05"/>
<path d="M1130 470 L1270 470 L1252 1650 Q1200 1653 1138 1656 Z" fill="#000" opacity="0.05"/>
<rect x="330" y="470" width="940" height="22" fill="#000" opacity="0.08"/>
<g transform="translate(260,502) scale(0.36)"><g font-family="Fredoka, Nunito, sans-serif">

  
  <text x="1500" y="560" font-family="Nunito, sans-serif" font-size="140" font-weight="700"
        fill="#3B2A4A" text-anchor="middle" letter-spacing="24">TRICK OR TREAT</text>

  
  <g>
    <path d="M 960 2060 L 960 1290 A 540 540 0 0 1 2040 1290 L 2040 2060
             Q 1905 2262 1770 2060 Q 1635 2262 1500 2060
             Q 1365 2262 1230 2060 Q 1095 2262 960 2060 Z"
          fill="#FFFFFF" stroke="#3B2A4A" stroke-width="22" stroke-linejoin="round"/>
    <circle cx="1128" cy="1585" r="92" fill="#F5A9A0"/>
    <circle cx="1872" cy="1585" r="92" fill="#F5A9A0"/>
    <ellipse cx="1288" cy="1385" rx="88" ry="112" fill="#3B2A4A"/>
    <ellipse cx="1712" cy="1385" rx="88" ry="112" fill="#3B2A4A"/>
    <ellipse cx="1500" cy="1655" rx="86" ry="108" fill="#3B2A4A"/>
  </g>

  
  <text x="1500" y="2600" font-size="330" font-weight="700"
        fill="#E8722A" text-anchor="middle">Olivia</text>

</g></g>
</svg>